<svg width="100" height="100" viewBox="0 0 100 100" fill="none" xmlns="http://www.w3.org/2000/svg">
<g clip-path="url(#clip0_12_6)">
<path d="M49.6689 95.0302C49.6689 95.9237 48.9446 96.648 48.0511 96.648H28.4596C25.6613 96.648 23.3846 94.3713 23.3846 91.573V42.4855C23.3846 34.8041 28.0313 27.8663 35.0608 24.8746V8.88904C34.4615 8.32512 34.1008 7.52871 34.1008 6.67175V3.04445C34.1008 1.75138 34.9224 0.595819 36.1454 0.168956C36.4701 0.0566354 36.8052 0.000244141 37.145 0.000244141H47.8891C48.2289 0.000244141 48.564 0.0566354 48.8852 0.168031C50.1117 0.596282 50.9333 1.75184 50.9333 3.04468V6.67198C50.9333 7.52894 50.5726 8.32512 49.9733 8.88927V24.8748C53.8678 26.5333 57.1209 29.4441 59.2125 33.1685C59.65 33.9476 59.3731 34.9337 58.594 35.3712C57.8147 35.8082 56.8288 35.5316 56.3913 34.7528C54.4929 31.3723 51.4462 28.7975 47.8124 27.5028C47.1678 27.2733 46.7377 26.6629 46.7377 25.9788V9.71618H46.37C45.4766 9.71618 44.7523 8.99188 44.7523 8.0984C44.7523 7.20492 45.4766 6.48062 46.37 6.48062H47.6978V3.23558H37.3363V6.48062H38.6643C39.5578 6.48062 40.2821 7.20492 40.2821 8.0984C40.2821 8.99188 39.5578 9.71618 38.6643 9.71618H38.2964V25.9786C38.2964 26.6627 37.866 27.2728 37.2217 27.5026C30.8805 29.7624 26.6199 35.7837 26.6199 42.4855V91.5727C26.6199 92.5871 27.445 93.4122 28.4593 93.4122H48.0509C48.9446 93.4124 49.6689 94.1365 49.6689 95.0302ZM35.8776 32.6372C32.397 34.6208 30.2347 38.3262 30.2347 42.3071V86.3191C30.2347 87.2126 30.959 87.9369 31.8525 87.9369C32.746 87.9369 33.4703 87.2126 33.4703 86.3191V42.3071C33.4703 39.4859 35.0065 36.8577 37.4796 35.4479C38.2559 35.0056 38.5263 34.0178 38.084 33.2415C37.6416 32.4652 36.6536 32.1943 35.8776 32.6372ZM68.9841 61.4688C68.0969 61.5747 67.4636 62.3796 67.5695 63.2666C67.7435 64.7247 67.2503 66.1911 66.1805 67.3961C64.8514 68.8933 62.8569 69.7872 60.8455 69.7872C59.952 69.7872 59.2277 70.5115 59.2277 71.405C59.2277 72.2985 59.952 73.0228 60.8455 73.0228C63.7677 73.0228 66.6665 71.7223 68.6002 69.5441C70.2924 67.6379 71.0673 65.2725 70.7822 62.8835C70.6765 61.996 69.8718 61.362 68.9841 61.4688ZM73.1134 73.9341C70.4124 76.9769 66.52 78.9367 62.4633 79.3536V96.7642H67.6141C68.5075 96.7642 69.2318 97.4885 69.2318 98.382C69.2318 99.2755 68.5075 99.9998 67.6141 99.9998H60.873C60.8638 100 60.8547 100 60.8455 100C60.8363 100 60.8272 100 60.818 99.9998H54.0769C53.1834 99.9998 52.4591 99.2755 52.4591 98.382C52.4591 97.4885 53.1834 96.7642 54.0769 96.7642H59.2279V79.3536C55.171 78.9367 51.2786 76.9767 48.5774 73.9338C45.9335 70.9548 44.7215 67.2683 45.1655 63.5532L46.3455 53.6723C46.3476 53.6508 46.3504 53.6293 46.3532 53.608L47.6867 42.4421C47.7837 41.6286 48.4739 41.0161 49.2931 41.0161H72.3983C73.2176 41.0161 73.9075 41.6286 74.0048 42.4421L76.5262 63.5534C76.9695 67.2686 75.7575 70.9555 73.1134 73.9341ZM73.3131 63.9369L70.962 44.2515H50.729L49.6789 53.0443C54.0319 55.6772 61.2865 55.5355 67.3901 52.6038C68.1951 52.2167 69.1621 52.5562 69.5489 53.3614C69.9358 54.1668 69.5965 55.1334 68.7911 55.5202C62.1917 58.6904 54.5791 58.9929 49.2677 56.4881L48.3782 63.9366C48.0456 66.7208 48.9756 69.508 50.9971 71.7856C53.4513 74.5504 57.1329 76.201 60.8453 76.201C64.5578 76.201 68.2395 74.5504 70.6936 71.7859C72.7152 69.5087 73.6456 66.7211 73.3131 63.9369Z" fill="black"/>
</g>
<defs>
<clipPath id="clip0_12_6">
<rect width="100" height="100" fill="white"/>
</clipPath>
</defs>
</svg>
