<svg width="100" height="100" viewBox="0 0 100 100" fill="none" xmlns="http://www.w3.org/2000/svg">
<path d="M12.5 39.0085C12.5 26.3352 20.9081 14.5833 32.4219 14.5833C40.4117 14.5833 46.3404 19.856 50 27.3356C53.6594 19.8565 59.5879 14.5833 67.5781 14.5833C79.0931 14.5833 87.5 26.3373 87.5 39.0085C87.5 41.2556 87.2427 43.4487 86.7706 45.5814C82.7598 40.6504 76.6435 37.5 69.7917 37.5C57.7104 37.5 47.9167 47.2937 47.9167 59.375C47.9167 68.0285 52.9412 75.5083 60.2323 79.0562C54.4238 83.1421 50 85.4166 50 85.4166C50 85.4166 12.5 67.301 12.5 39.0085Z" fill="#333333"/>
<path d="M75 60.4167C75 62.7179 73.1346 64.5833 70.8333 64.5833C68.5321 64.5833 66.6666 62.7179 66.6666 60.4167C66.6666 60.1692 66.6883 59.9269 66.7296 59.6913L61.6891 54.6508L64.6356 51.7046L69.425 56.494C69.8648 56.336 70.3389 56.25 70.8333 56.25C73.1346 56.25 75 58.1154 75 60.4167Z" fill="#333333"/>
<path fill-rule="evenodd" clip-rule="evenodd" d="M87.5 59.375C87.5 69.155 79.5716 77.0834 69.7916 77.0834C60.0116 77.0834 52.0833 69.155 52.0833 59.375C52.0833 49.595 60.0116 41.6667 69.7916 41.6667C79.5716 41.6667 87.5 49.595 87.5 59.375ZM83.3333 59.375C83.3333 66.854 77.2706 72.9167 69.7916 72.9167C62.3127 72.9167 56.25 66.854 56.25 59.375C56.25 51.8961 62.3127 45.8334 69.7916 45.8334C77.2706 45.8334 83.3333 51.8961 83.3333 59.375Z" fill="#333333"/>
</svg>
