<svg width="100" height="100" viewBox="0 0 100 100" fill="none" xmlns="http://www.w3.org/2000/svg">
<g clip-path="url(#clip0_4_102)">
<path d="M55.4453 99.9919L30.5412 96.7087C30.13 96.6547 29.7458 96.4824 29.4323 96.2113L26.3984 93.5969C25.9417 93.2054 25.6737 92.6385 25.6592 92.0384C25.5949 89.3451 25.736 86.7682 25.8875 84.0386C26.0183 81.689 26.1532 79.2585 26.1532 76.6544C26.1532 62.5434 19.012 54.4176 18.9663 54.3376C14.541 48.3935 12.2028 41.3282 12.2028 33.8826C12.2028 15.3235 26.5123 0.554029 44.842 0.111682C44.9356 0.0959064 69.2639 -2.51853 81.0158 18.458C83.8615 23.5374 83.9144 29.2592 83.9144 34.5823C83.9144 39.1592 84.6787 43.6238 85.5051 47.7653C85.6859 48.6581 88.2125 54.4373 87.7374 57.5138C87.6477 58.0946 85.5558 61.4146 79.4935 61.7043C79.5391 61.7884 80.1183 64.8572 78.906 66.4481C78.5052 66.9741 77.9694 67.3452 77.359 67.6257C77.9341 68.3273 78.3038 69.2994 77.9655 70.6283C77.6435 71.9385 76.4676 72.4249 75.8557 72.8635C75.3685 73.2126 75.7807 76.215 75.9389 77.1609C76.379 79.7878 77.1952 84.6771 70.7912 85.814C69.3293 86.0745 62.3486 84.5785 59.8997 87.8958C58.3897 89.941 57.5781 93.5585 57.6466 96.8083C57.6466 96.8083 58.2183 100.187 55.4453 99.9919ZM31.7269 92.5756L53.4143 95.435C53.5908 91.7542 54.6996 88.006 56.3775 85.5122C60.1543 79.898 68.9241 81.8262 70.0477 81.6267C72.2447 81.2373 72.2592 80.9405 71.7442 77.8619C71.5698 76.8153 70.5228 71.3423 72.9195 69.6732C72.2571 69.2973 71.5281 68.7688 71.113 67.8646C70.6937 66.954 70.9677 65.8741 71.7714 65.273C72.4711 64.7497 75.1499 63.9379 75.4634 63.8154C75.4488 63.6306 74.489 60.1357 77.1101 58.1973C78.6376 57.0677 82.9127 57.1885 83.5869 55.9993C83.7606 55.6929 81.5914 49.861 81.3361 48.6046C80.466 44.2419 79.6622 39.5291 79.6622 34.5827C79.6622 29.5835 79.4432 24.7563 77.239 20.4133C68.4261 3.04993 45.339 4.35663 45.2393 4.3585C29.0977 4.59182 16.4559 17.561 16.4559 33.8828C16.4559 40.4997 18.5617 46.7729 22.5487 52.0236C22.6151 52.1118 30.4063 61.1208 30.4063 76.6547C30.4063 79.3758 30.2691 81.8667 30.1344 84.2744C30.0055 86.5899 29.8851 88.7921 29.8975 90.9993L31.7269 92.5756Z" fill="black"/>
<path d="M47.7643 50.2916L44.0099 48.294L51.037 35.083H42.847C42.0892 35.083 41.3873 34.6791 41.0073 34.024C40.6272 33.3678 40.6251 32.5589 41.001 31.9007L49.4712 17.0894L53.1632 19.2013L46.512 30.8302H54.5753C55.3207 30.8302 56.0142 31.2215 56.3985 31.861C56.7827 32.5016 56.8035 33.296 56.4524 33.9553L47.7643 50.2916Z" fill="black"/>
</g>
<defs>
<clipPath id="clip0_4_102">
<rect width="100" height="100" fill="white"/>
</clipPath>
</defs>
</svg>
