<svg width="100" height="73" viewBox="0 0 100 73" fill="none" xmlns="http://www.w3.org/2000/svg">
<path d="M97.3517 9.14107C93.8388 2.42396 88.2026 -1.39012 84.6162 0.470597C84.3229 0.625013 84.1067 0.891381 83.8596 1.10756C83.8596 1.10756 42.5455 38.0131 3.91828 47.031C3.91828 47.031 3.1655 47.3128 2.81421 47.4981C1.67153 48.0926 0.833818 49.1658 0.386011 50.5941C-0.579091 53.6632 0.297221 58.3806 2.65979 62.9011C5.53579 68.3983 9.79382 72.0927 13.2566 72.0927C14.0248 72.0927 14.7467 71.919 15.403 71.5754C15.7195 71.4094 15.9743 71.1662 16.2368 70.9269C16.2368 70.9269 30.779 57.9482 50.6678 45.5061C50.0154 48.8685 48.6025 53.7211 45.5682 57.4811L50.4092 55.5162L53.0574 58.5852C53.0574 58.5852 56.5472 53.6477 57.4506 46.8843C63.7006 49.6522 69.7537 49.2353 69.7537 49.2353L68.5183 45.3787L72.7185 42.2711C67.7578 42.9235 62.7046 41.4758 59.5082 40.2482C71.0353 33.7241 83.7515 27.922 96.1975 25.0151C96.1975 25.0151 96.8846 24.7255 97.2128 24.5518C100.872 22.6255 100.934 15.9972 97.3517 9.14107ZM13.6388 68.213C12.5347 68.7959 8.87505 66.5994 6.02221 61.1408C3.87582 57.0371 3.46276 53.4547 4.00707 51.7252C4.10358 51.4164 4.28116 51.0072 4.57069 50.8605C4.67492 50.8026 4.80232 50.7794 4.95673 50.7794C6.40439 50.7794 9.60466 52.9953 12.1796 57.925C14.9938 63.3026 14.7197 67.6455 13.6388 68.213ZM15.5458 56.1647C14.0171 53.2424 12.0753 50.9145 10.0795 49.3163C21.9541 45.8574 34.0797 39.924 45.0818 33.4694C47.0969 35.415 49.1159 38.0864 49.9189 41.5106C35.6354 50.3741 24.031 59.6352 18.113 64.6306C17.9431 62.0943 17.1132 59.1642 15.5458 56.1647ZM95.4408 21.1894C95.2787 21.2705 94.7807 21.3824 94.7961 21.4635C81.7016 24.5981 68.5956 30.659 56.8329 37.3954C55.667 34.1642 53.8797 31.4581 51.9302 29.3001C71.8653 16.7345 86.6623 3.75194 86.7549 3.75194C88.2026 3.75194 91.4067 5.96782 93.9816 10.8976C96.7997 16.279 96.5256 20.6219 95.4408 21.1894Z" fill="#030104"/>
</svg>
