<svg width="100" height="100" viewBox="0 0 100 100" fill="none" xmlns="http://www.w3.org/2000/svg">
<path d="M63.5417 27.0833C68.7194 27.0833 72.9167 22.8861 72.9167 17.7083C72.9167 12.5307 68.7194 8.33334 63.5417 8.33334C58.364 8.33334 54.1667 12.5307 54.1667 17.7083C54.1667 22.8861 58.364 27.0833 63.5417 27.0833Z" fill="#333333"/>
<path d="M44.7085 36.0048C42.1096 36.649 40.3373 37.6206 38.9065 38.8254C36.759 40.634 35.0279 43.2435 32.6858 47.3419C31.5442 49.3398 28.999 50.034 27.001 48.8923C25.0029 47.7504 24.309 45.2052 25.4506 43.2073C27.7808 39.1296 30.1379 35.315 33.5385 32.4513C37.0892 29.4613 41.4338 27.7683 47.2967 27.1167C49.746 26.8446 52.4402 26.8994 54.9679 28.0275C57.6215 29.2121 59.5575 31.3346 60.8785 34.1715C62.6573 37.9913 63.9806 40.2654 65.0406 41.5823C65.5502 42.2152 65.9067 42.5088 66.1079 42.6402C66.2685 42.745 66.336 42.7529 66.3621 42.7558L66.365 42.7563C66.5465 42.7783 67.1325 42.7554 68.8592 41.9923C69.6104 41.6602 70.4321 41.2588 71.4354 40.7685L71.6754 40.6513C72.7613 40.121 74.0042 39.5179 75.3921 38.9008C77.4948 37.9663 79.9573 38.9133 80.8919 41.0163C81.8265 43.119 80.8796 45.5813 78.7767 46.516C77.5365 47.0671 76.4096 47.6133 75.3325 48.1394L75.0602 48.2725C74.0998 48.7419 73.1335 49.2142 72.2281 49.6144C70.3517 50.4438 67.9544 51.3446 65.3577 51.0285C62.6171 50.6948 60.5035 49.1488 58.7652 47.071L53.0698 58.0554L60.9442 68.3027C61.414 68.9138 61.7048 69.6433 61.7846 70.41L63.5194 87.0688C63.7577 89.3575 62.0954 91.4062 59.8067 91.6444C57.5177 91.8829 55.4692 90.2206 55.2308 87.9317L53.6183 72.4456L48.8354 66.2217L48.7954 66.299L48.6194 65.9406L39.781 54.439C38.8977 53.2896 38.6752 51.764 39.1935 50.4104L44.7085 36.0048Z" fill="#333333"/>
<path d="M38.4002 60.4315L35.334 68.6825L23.2481 67.7215C20.9542 67.539 18.9468 69.2508 18.7644 71.5446C18.5819 73.8385 20.2936 75.846 22.5875 76.0285L37.8125 77.2392C39.6698 77.3869 41.3994 76.2835 42.0485 74.5371L44.3925 68.2294L38.4002 60.4315Z" fill="#333333"/>
</svg>
