<svg width="100" height="100" viewBox="0 0 100 100" fill="none" xmlns="http://www.w3.org/2000/svg">
<path d="M18.75 39.6552C18.75 27.7273 26.691 16.6667 37.565 16.6667C45.111 16.6667 50.7104 21.6292 54.1667 28.6689C57.6227 21.6296 63.2221 16.6667 70.7683 16.6667C81.6435 16.6667 89.5833 27.7292 89.5833 39.6552C89.5833 65.185 54.1667 83.3333 54.1667 83.3333C54.1667 83.3333 30.3098 71.8483 21.7565 53.0092H42.885L46.2433 47.0392L50.166 60.7692L59.3523 48.9583H70.8333V44.7917H57.3144L51.9173 51.7308L47.5067 36.2942L40.4483 48.8425H20.1663C20.608 50.2683 21.1429 51.6577 21.7565 53.0092L12.5 53.0089V48.8423L20.1663 48.8425C19.2634 45.9277 18.75 42.8606 18.75 39.6552Z" fill="#333333"/>
</svg>
