<svg width="337" height="874" viewBox="0 0 337 874" fill="none" xmlns="http://www.w3.org/2000/svg">
<path d="M210.894 873.186C209.029 873.186 207.407 872.271 206.204 870.539L205.751 869.888C202.057 864.574 196.475 856.544 193.857 848.761C192.827 845.7 192.392 843.921 192.104 842.743C191.641 840.84 191.53 840.388 189.776 838.065C187.668 835.273 189.356 828.467 190.845 822.462C191.578 819.504 192.272 816.709 192.354 814.957C192.397 814.073 192.484 813.051 192.587 811.868L192.721 810.316C192.83 808.998 192.055 807.309 191.157 805.354C189.928 802.68 188.401 799.353 188.333 795.29C188.291 792.767 188.982 790.064 189.784 786.934C190.934 782.443 192.237 777.35 191.62 771.444C191.031 765.795 190.289 759.277 189.507 752.377C186.377 724.801 182.482 690.481 184.258 677.304C186.39 661.497 186.501 643.145 184.516 634.614C182.46 625.787 178.606 579.545 178.12 552.784C177.585 523.514 172.218 484.728 168.425 482.207C164.631 484.728 159.264 523.513 158.731 552.784C158.243 579.555 154.388 625.794 152.334 634.614C150.348 643.146 150.459 661.498 152.592 677.303C154.393 690.669 150.511 724.678 147.394 752.006C146.591 759.04 145.832 765.685 145.231 771.444C144.68 776.701 146.646 781.179 148.379 785.128C149.664 788.055 150.878 790.819 150.818 793.426C150.638 800.98 148.102 806.231 146.248 810.066C145.24 812.155 144.443 813.804 144.496 814.958C144.578 816.711 145.272 819.507 146.005 822.467C147.494 828.471 149.183 835.275 147.074 838.066C145.321 840.389 145.212 840.841 144.746 842.743C144.459 843.92 144.025 845.7 142.993 848.763C140.374 856.545 134.792 864.576 131.098 869.891L130.647 870.539C129.445 872.272 127.822 873.186 125.957 873.186C122.578 873.187 119.305 870.202 118.747 868.189C118.657 867.872 118.544 867.785 118.215 867.785C117.732 867.785 116.987 868.026 116.198 868.28C115.033 868.655 113.581 869.122 112.088 869.122C111.159 869.122 110.291 868.938 109.505 868.577C108.43 868.08 107.682 867.76 107.143 867.53C105.649 866.891 105.563 866.827 104.838 865.814L104.601 865.488C104.064 864.75 103.194 864.59 102.188 864.406C101.275 864.241 100.334 864.069 99.555 863.434C98.5359 862.598 97.9734 861.419 97.2567 859.926C96.8425 859.061 96.3733 858.082 95.7367 857.01C93.905 853.921 93.4433 852.356 93.6892 847.234C93.8375 844.17 99.54 837.94 105.579 831.345C109.948 826.573 114.468 821.638 115.84 818.841C118.633 813.143 118.346 809.26 117.717 800.754C117.647 799.793 117.572 798.776 117.497 797.694C116.762 787.105 108.99 745.016 104.263 727.916C99.69 711.37 96.3733 670.668 99.3433 654.618C99.7975 652.162 100.253 649.837 100.695 647.582C103.062 635.476 105.108 625.022 104.49 606.542C103.773 585.227 102.849 572.847 89.7841 524.733C79.3267 486.226 82.9358 448.557 85.0933 426.05C85.5517 421.256 85.9492 417.116 86.0833 414.073C86.7967 397.884 91.79 379.514 96.6175 361.751L97.1475 359.804C101.951 342.118 104.029 315.741 103.265 300.457C102.538 285.953 97.4533 275.351 95.0858 275.351C92.6525 276.63 88.94 307.915 87.1575 322.949L86.8175 325.806C84.6817 343.745 76.6159 383.185 69.8467 400.905C67.4142 407.28 65.395 412.128 63.775 416.022C60.9608 422.785 59.2642 426.867 58.3417 431.747C57.7325 434.978 57.1992 442.54 56.6333 450.545C55.8142 462.175 54.965 474.202 53.6508 477.785C52.9892 479.593 52.4492 481.605 51.925 483.551C50.69 488.136 49.4117 492.877 46.3908 495.844C43.4783 498.703 42.6117 498.987 41.21 499.274C40.7133 499.375 40.1525 499.491 39.32 499.83C38.1067 500.326 37.3675 501.643 36.6525 502.915C35.78 504.469 34.875 506.077 33.05 506.377C31.5358 506.625 29.8833 508.057 27.9692 509.716C26.4625 511.021 24.755 512.501 22.7233 513.762C21.2942 514.648 20.1775 514.608 19.51 513.768C18.3017 512.25 19.0192 508.114 19.835 504.91C20.1 503.867 19.9275 501.989 19.3175 501.22C19.0975 500.946 18.9008 500.914 18.7717 500.914C18.5417 500.914 18.03 501.037 17.1842 501.868C16.1725 502.862 15.2308 503.344 14.3058 503.344C12.5225 503.344 11.4733 501.523 10.7783 500.318C10.6233 500.049 10.4817 499.803 10.3492 499.609C9.68501 498.631 10.8125 494.867 14.7767 483.283C16.3658 478.642 18.0067 473.843 18.8558 470.707C20.3817 465.067 19.9075 462.654 19.2392 461.624C18.9125 461.116 18.4633 460.819 17.8667 460.711C17.1242 460.737 14.71 464.032 13.1125 466.213C10.9758 469.131 8.76333 472.149 7.0175 473.23C6.16333 473.76 5.22416 474.039 4.29749 474.039C2.74166 474.04 1.33001 473.251 0.701681 472.032C0.163347 470.991 0.287513 469.816 1.03918 468.807C2.77418 466.48 12.0008 453.268 15.2142 446.577C17.53 441.754 23.4508 437.536 27.775 434.457C29.5692 433.178 31.1208 432.073 32.0308 431.205C35.11 428.272 36.03 419.074 36.5058 386.467C36.98 353.995 46.8458 315.712 51.9967 300.004C56.385 286.625 55.95 268.194 55.6909 257.181L55.6492 255.372C55.58 252.272 55.5683 249.735 55.5558 246.799C55.525 239.293 55.485 229.954 54.4233 204.771C53.0167 171.379 73.9767 158.982 85.2375 152.322C85.895 151.933 86.5225 151.561 87.1142 151.206C97.3033 145.066 139.505 126.762 143.987 124.822C143.907 122.522 143.56 111.626 144.008 108.963C144.413 106.559 141.007 99.2764 138.751 94.4573L137.923 92.681C135.934 88.3831 136.269 84.4313 136.52 82.8653L133.533 82.6706C132.945 82.6313 132.365 82.2713 131.758 81.566C128.122 77.3442 123.393 59.5675 123.638 57.1817C123.761 55.9495 124.69 55.2435 126.185 55.2435C127.094 55.2435 128.025 55.493 128.461 55.6288C128.386 54.5349 128.26 52.9869 128.054 50.7901C126.844 37.9659 132.418 20.9101 136.732 14.0235C140.734 7.63591 163.827 0.564364 164.807 0.266545L164.989 0.239548L172.047 0.266545C173.028 0.564364 196.121 7.63673 200.122 14.0226C204.438 20.9109 210.008 37.9667 208.801 50.7901C208.592 52.9869 208.467 54.5357 208.392 55.6288C208.828 55.4938 209.759 55.2435 210.669 55.2435C212.162 55.2435 213.091 55.9495 213.218 57.1817C213.46 59.5692 208.729 77.3466 205.093 81.5676C204.486 82.2705 203.906 82.6313 203.318 82.6706L200.333 82.8653C200.587 84.4313 200.92 88.3831 198.931 92.681L198.098 94.4655C195.844 99.2821 192.439 106.56 192.844 108.963C193.293 111.626 192.946 122.522 192.866 124.822C197.348 126.762 239.55 145.066 249.741 151.206C250.33 151.562 250.958 151.934 251.617 152.322C262.876 158.982 283.836 171.379 282.43 204.771C281.369 229.947 281.329 239.288 281.297 246.792C281.283 249.732 281.273 252.271 281.203 255.372L281.161 257.19C280.902 268.201 280.47 286.629 284.856 300.004C290.006 315.711 299.873 353.994 300.347 386.467C300.824 419.074 301.745 428.272 304.823 431.205C305.734 432.073 307.283 433.176 309.078 434.455C313.402 437.536 319.325 441.755 321.641 446.577C324.858 453.281 334.08 466.485 335.814 468.809C336.566 469.816 336.69 470.991 336.151 472.032C335.522 473.251 334.111 474.039 332.556 474.039C331.632 474.04 330.692 473.76 329.837 473.23C328.088 472.149 325.878 469.131 323.739 466.213C322.143 464.032 319.728 460.738 318.971 460.713C318.388 460.819 317.94 461.116 317.611 461.624C316.945 462.654 316.472 465.067 317.996 470.707C318.845 473.843 320.487 478.642 322.075 483.283C326.039 494.867 327.167 498.631 326.504 499.609C326.371 499.803 326.231 500.049 326.075 500.319C325.379 501.524 324.328 503.344 322.546 503.344C321.621 503.346 320.679 502.862 319.666 501.868C318.821 501.037 318.308 500.914 318.078 500.914C317.951 500.914 317.753 500.946 317.535 501.22C316.924 501.988 316.753 503.866 317.018 504.91C317.831 508.116 318.546 512.255 317.342 513.768C316.672 514.61 315.557 514.648 314.13 513.762C312.098 512.501 310.391 511.021 308.883 509.716C306.97 508.057 305.318 506.625 303.803 506.377C301.978 506.077 301.074 504.469 300.2 502.914C299.484 501.642 298.745 500.327 297.532 499.83C296.699 499.491 296.138 499.375 295.644 499.274C294.24 498.986 293.373 498.703 290.46 495.844C287.44 492.877 286.165 488.136 284.929 483.552C284.405 481.605 283.863 479.593 283.201 477.785C281.887 474.202 281.038 462.175 280.218 450.543C279.654 442.54 279.121 434.979 278.51 431.747C277.59 426.867 275.891 422.785 273.077 416.025C271.457 412.129 269.439 407.281 267.004 400.906C260.237 383.184 252.169 343.746 250.034 325.806L249.695 322.949C247.911 307.914 244.201 276.63 241.723 275.338C239.398 275.352 234.315 285.954 233.589 300.458C232.824 315.745 234.902 342.123 239.705 359.805L240.238 361.761C245.065 379.522 250.057 397.887 250.768 414.074C250.903 417.118 251.3 421.26 251.759 426.056C253.914 448.561 257.522 486.231 247.067 524.734C234.002 572.854 233.078 585.233 232.363 606.543C231.742 625.024 233.788 635.479 236.157 647.584C236.597 649.84 237.052 652.164 237.507 654.619C240.477 670.667 237.162 711.368 232.587 727.917C227.862 745.013 220.089 787.104 219.353 797.695C219.278 798.776 219.203 799.792 219.132 800.752C218.505 809.259 218.217 813.144 221.012 818.842C222.383 821.639 226.902 826.574 231.271 831.346C237.31 837.942 243.013 844.171 243.162 847.234C243.408 852.358 242.948 853.922 241.116 857.01C240.477 858.084 240.008 859.063 239.594 859.928C238.881 861.419 238.315 862.601 237.296 863.434C236.518 864.07 235.576 864.242 234.665 864.409C233.658 864.592 232.787 864.751 232.251 865.489L232.015 865.815C231.288 866.827 231.202 866.891 229.707 867.53C229.169 867.761 228.423 868.081 227.348 868.578C226.564 868.939 225.695 869.123 224.763 869.123C223.271 869.123 221.82 868.656 220.655 868.281C219.865 868.026 219.121 867.786 218.637 867.786C218.31 867.786 218.195 867.873 218.108 868.19C217.544 870.202 214.271 873.186 210.894 873.186ZM168.425 480.898L168.622 480.963C174.191 482.814 178.91 528.648 179.35 552.762C179.821 578.723 183.701 625.697 185.714 634.344C187.76 643.138 187.662 661.271 185.479 677.461C183.722 690.492 187.609 724.73 190.73 752.241C191.514 759.144 192.253 765.665 192.845 771.318C193.484 777.437 192.151 782.638 190.977 787.226C190.197 790.273 189.524 792.904 189.564 795.268C189.628 799.08 191.098 802.283 192.28 804.854C193.247 806.962 194.083 808.782 193.948 810.412L193.815 811.968C193.711 813.151 193.624 814.145 193.585 815.01C193.498 816.879 192.792 819.73 192.041 822.746C190.687 828.209 189.001 835.007 190.763 837.344C192.668 839.863 192.814 840.466 193.303 842.46C193.585 843.617 194.012 845.368 195.027 848.381C197.588 856.001 203.113 863.948 206.769 869.205L207.222 869.856C208.198 871.264 209.433 871.977 210.895 871.977C213.764 871.977 216.518 869.312 216.918 867.869C217.153 867.022 217.748 866.575 218.636 866.575C219.317 866.575 220.114 866.832 221.038 867.13C222.177 867.497 223.467 867.914 224.762 867.914C225.52 867.914 226.196 867.772 226.822 867.483C227.913 866.98 228.671 866.655 229.216 866.421C230.452 865.892 230.452 865.892 231.007 865.117L231.247 864.784C232.073 863.649 233.329 863.42 234.439 863.218C235.229 863.074 235.978 862.938 236.506 862.503C237.317 861.84 237.83 860.768 238.479 859.411C238.904 858.524 239.386 857.518 240.051 856.398C241.671 853.666 242.175 852.358 241.931 847.288C241.805 844.655 235.722 838.012 230.356 832.15C225.723 827.092 221.349 822.315 219.902 819.362C216.966 813.374 217.28 809.124 217.905 800.661C217.974 799.701 218.049 798.688 218.124 797.61C218.864 786.974 226.66 744.742 231.4 727.596C235.943 711.158 239.242 670.749 236.294 654.832C235.842 652.38 235.387 650.06 234.948 647.809C232.565 635.632 230.507 625.116 231.132 606.499C231.904 583.499 233.374 570.464 245.877 524.418C256.277 486.124 252.682 448.59 250.533 426.165C250.072 421.353 249.674 417.197 249.539 414.123C248.831 398.067 243.858 379.766 239.047 362.068L238.516 360.113C233.682 342.316 231.589 315.774 232.357 300.395C233.086 285.85 238.099 274.139 241.766 274.139C244.382 274.234 246.504 285.604 250.916 322.805L251.256 325.661C253.383 343.542 261.418 382.836 268.155 400.477C270.584 406.837 272.597 411.676 274.214 415.564C277.058 422.396 278.776 426.52 279.718 431.523C280.341 434.822 280.878 442.415 281.443 450.456C282.221 461.467 283.099 473.946 284.355 477.372C285.036 479.229 285.586 481.267 286.117 483.238C287.31 487.668 288.542 492.25 291.329 494.984C294.117 497.723 294.785 497.859 295.893 498.086C296.413 498.192 297.063 498.327 298.002 498.71C299.613 499.369 300.494 500.941 301.273 502.326C302.073 503.749 302.763 504.978 304.004 505.18C305.865 505.485 307.639 507.023 309.696 508.805C311.167 510.081 312.836 511.527 314.783 512.736C315.406 513.123 315.78 513.203 315.984 513.203C316.154 513.203 316.266 513.15 316.369 513.019C317.041 512.177 316.831 509.179 315.822 505.198C315.523 504.022 315.614 501.663 316.563 500.472C316.962 499.968 317.487 499.701 318.076 499.701C318.833 499.701 319.638 500.129 320.534 501.009C321.293 501.755 321.969 502.133 322.543 502.133C323.609 502.133 324.413 500.737 325.001 499.718C325.173 499.421 325.331 499.15 325.478 498.934C325.778 497.9 322.962 489.672 320.906 483.664C319.313 479.004 317.663 474.186 316.806 471.012C315.469 466.076 315.393 462.791 316.57 460.972C317.084 460.176 317.822 459.688 318.762 459.52C320.057 459.28 321.773 461.46 324.738 465.504C326.71 468.195 328.946 471.248 330.489 472.204C331.147 472.611 331.861 472.826 332.552 472.826C333.648 472.826 334.628 472.298 335.052 471.48C335.378 470.85 335.295 470.153 334.819 469.517C333.074 467.178 323.782 453.868 320.526 447.086C318.345 442.545 312.57 438.432 308.353 435.428C306.521 434.122 304.938 432.996 303.963 432.068C300.554 428.819 299.603 419.874 299.115 386.479C298.642 354.151 288.814 316.018 283.682 300.371C279.232 286.801 279.668 268.245 279.929 257.158L279.971 255.342C280.041 252.25 280.053 249.717 280.064 246.783C280.095 239.267 280.138 229.915 281.198 204.715C282.575 172.039 262.022 159.883 250.98 153.352C250.319 152.961 249.688 152.588 249.094 152.231C238.454 145.819 192.451 125.958 191.988 125.758L191.604 125.594L191.621 125.184C191.625 125.052 192.101 111.957 191.628 109.156C191.161 106.387 194.387 99.4948 196.978 93.9565L197.808 92.1778C200.138 87.1435 199.01 82.4971 198.998 82.4505L198.822 81.7509L203.234 81.4613C203.34 81.4539 203.643 81.3745 204.151 80.7838C207.717 76.6471 212.181 59.1732 211.991 57.2987C211.963 57.023 211.903 56.4486 210.668 56.4486C210.002 56.4486 209.29 56.6221 208.888 56.7391C208.501 58.7346 208.297 59.0128 207.771 59.0128C207.768 59.0128 207.768 59.0128 207.768 59.0128H207.498L207.295 58.805C207.047 58.5383 206.852 58.328 207.572 50.6739C208.799 37.6804 202.783 20.5763 199.071 14.6518C195.427 8.83618 173.352 1.93237 171.768 1.44391H165.08C163.498 1.93237 141.422 8.83536 137.779 14.6518C134.068 20.5763 128.052 37.6804 129.277 50.6739C129.997 58.328 129.812 58.5285 129.554 58.805L129.371 59.0022L129.078 59.0128C128.553 59.0128 128.347 58.7346 127.96 56.7391C127.558 56.6213 126.848 56.4486 126.182 56.4486C124.945 56.4486 124.886 57.023 124.859 57.2987C124.668 59.1724 129.129 76.6455 132.695 80.7838C133.204 81.3745 133.506 81.4539 133.612 81.4613L138.027 81.7509L137.851 82.4513C137.838 82.4979 136.711 87.1435 139.039 92.1786L139.866 93.95C142.458 99.4907 145.686 106.387 145.219 109.157C144.748 111.957 145.223 125.053 145.228 125.185L145.243 125.595L144.86 125.759C144.396 125.959 98.3925 145.82 87.7534 152.232C87.16 152.59 86.53 152.962 85.8692 153.353C74.8275 159.884 54.2742 172.041 55.65 204.716C56.7125 229.924 56.7525 239.274 56.785 246.79C56.7983 249.721 56.8083 252.254 56.8759 255.343L56.9183 257.15C57.1792 268.239 57.6175 286.799 53.1658 300.372C48.0367 316.018 38.2058 354.151 37.7333 386.48C37.2458 419.874 36.2925 428.82 32.8842 432.069C31.9117 432.997 30.3275 434.124 28.495 435.429C24.2767 438.432 18.505 442.545 16.3242 447.088C13.0742 453.857 3.77666 467.173 2.02833 469.518C1.55416 470.154 1.47 470.852 1.795 471.481C2.21667 472.298 3.19917 472.827 4.295 472.827C4.98667 472.827 5.70167 472.612 6.3575 472.205C7.9025 471.248 10.14 468.196 12.1125 465.504C15.075 461.463 16.795 459.275 18.0858 459.52C19.0258 459.688 19.7633 460.177 20.2775 460.972C21.455 462.794 21.3783 466.076 20.0442 471.012C19.185 474.186 17.5367 479.004 15.9417 483.664C13.8867 489.672 11.07 497.9 11.3992 498.988C11.5175 499.15 11.675 499.421 11.8475 499.719C12.4342 500.738 13.2392 502.134 14.3042 502.134C14.8792 502.134 15.5542 501.756 16.3117 501.011C17.2092 500.131 18.0142 499.702 18.77 499.702C19.3592 499.702 19.8833 499.969 20.2842 500.473C21.2333 501.664 21.325 504.024 21.0275 505.198C20.0158 509.177 19.8042 512.174 20.4783 513.02C20.5825 513.15 20.6933 513.204 20.8633 513.204C21.0692 513.204 21.4433 513.123 22.0658 512.737C24.015 511.527 25.6833 510.082 27.1533 508.806C29.2083 507.024 30.9842 505.486 32.8458 505.181C34.085 504.978 34.7742 503.749 35.5742 502.327C36.3533 500.941 37.235 499.37 38.8467 498.711C39.7858 498.327 40.4342 498.193 40.9558 498.087C42.0617 497.86 42.7317 497.724 45.5183 494.985C48.3058 492.25 49.5392 487.669 50.7333 483.238C51.2625 481.267 51.8117 479.229 52.4925 477.373C53.7475 473.946 54.6283 461.468 55.405 450.458C55.9708 442.418 56.5067 434.823 57.1292 431.524C58.0733 426.521 59.79 422.396 62.6333 415.562C64.2517 411.674 66.2642 406.837 68.6925 400.477C75.43 382.836 83.4642 343.542 85.5917 325.661L85.9308 322.807C90.3442 285.604 92.4667 274.234 95.015 274.141C98.7475 274.139 103.761 285.851 104.489 300.395C105.259 315.771 103.166 342.312 98.3317 360.113L97.8017 362.06C92.9917 379.761 88.0158 398.065 87.3092 414.123C87.1725 417.196 86.7742 421.35 86.315 426.161C84.165 448.587 80.5692 486.121 90.9692 524.418C103.473 570.458 104.943 583.495 105.717 606.499C106.341 625.114 104.282 635.631 101.901 647.807C101.459 650.058 101.005 652.379 100.553 654.832C97.605 670.752 100.905 711.159 105.449 727.596C110.189 744.746 117.985 786.979 118.722 797.61C118.797 798.69 118.873 799.705 118.943 800.664C119.568 809.127 119.882 813.375 116.946 819.362C115.499 822.314 111.124 827.092 106.492 832.15C101.127 838.011 95.0433 844.655 94.9175 847.288C94.6725 852.356 95.1767 853.666 96.7975 856.4C97.4633 857.518 97.9433 858.523 98.3683 859.41C99.0175 860.768 99.5325 861.841 100.341 862.503C100.873 862.938 101.618 863.074 102.411 863.218C103.518 863.42 104.774 863.649 105.601 864.784L105.842 865.117C106.396 865.892 106.396 865.892 107.633 866.422C108.178 866.655 108.936 866.98 110.026 867.483C110.654 867.772 111.328 867.914 112.085 867.914C113.383 867.914 114.673 867.497 115.81 867.13C116.733 866.832 117.533 866.575 118.212 866.575C119.1 866.575 119.693 867.022 119.929 867.871C120.331 869.313 123.083 871.978 125.953 871.978C127.414 871.978 128.65 871.264 129.628 869.856L130.079 869.208C133.735 863.949 139.259 856.002 141.823 848.382C142.838 845.367 143.264 843.618 143.548 842.46C144.033 840.466 144.181 839.864 146.084 837.345C147.848 835.008 146.162 828.212 144.807 822.751C144.059 819.732 143.351 816.881 143.264 815.01C143.197 813.556 144.051 811.787 145.133 809.546C146.94 805.809 149.412 800.692 149.584 793.395C149.639 791.054 148.531 788.528 147.247 785.605C145.455 781.52 143.421 776.89 144.003 771.319C144.606 765.554 145.363 758.907 146.166 751.87C149.277 724.609 153.151 690.679 151.368 677.46C149.185 661.272 149.086 643.14 151.132 634.344C153.143 625.704 157.025 578.732 157.498 552.762C157.935 528.648 162.655 482.814 168.225 480.963L168.425 480.898Z" fill="black"/>
</svg>

