<svg width="100" height="100" viewBox="0 0 100 100" fill="none" xmlns="http://www.w3.org/2000/svg">
<path d="M77.0833 22.9166C77.0833 21.766 78.016 20.8333 79.1667 20.8333C84.9196 20.8333 89.5833 25.4971 89.5833 31.25V34.5644C89.5833 37.4562 88.2469 40.036 86.1581 41.7198C89.4817 43.9664 91.6667 47.7696 91.6667 52.0833V58.3333C91.6667 59.4839 90.734 60.4166 89.5833 60.4166C88.4327 60.4166 87.5 59.4839 87.5 58.3333V52.0833C87.5 47.481 83.769 43.75 79.1667 43.75C78.016 43.75 77.0833 42.8173 77.0833 41.6666C77.0833 40.516 78.016 39.5833 79.1667 39.5833H80.3977C83.1696 39.5833 85.4167 37.3362 85.4167 34.5644V31.25C85.4167 27.7981 82.6185 25 79.1667 25C78.016 25 77.0833 24.0673 77.0833 22.9166Z" fill="#333333"/>
<path d="M70.8333 35.4167C67.3815 35.4167 64.5833 38.2148 64.5833 41.6667V45.4546C64.5833 48.9062 67.3815 51.7046 70.8333 51.7046H77.0833C80.5352 51.7046 83.3333 54.5027 83.3333 57.9546V58.3333C83.3333 59.484 82.4006 60.4167 81.25 60.4167C80.0994 60.4167 79.1667 59.484 79.1667 58.3333V57.9546C79.1667 56.804 78.234 55.8712 77.0833 55.8712H70.8333C65.0804 55.8712 60.4167 51.2075 60.4167 45.4546V41.6667C60.4167 35.9137 65.0804 31.25 70.8333 31.25C71.984 31.25 72.9167 32.1827 72.9167 33.3333C72.9167 34.484 71.984 35.4167 70.8333 35.4167Z" fill="#333333"/>
<path d="M14.5833 64.5833C12.2821 64.5833 10.4167 66.4487 10.4167 68.75V72.9166C10.4167 75.2179 12.2821 77.0833 14.5833 77.0833H70.8333C73.1346 77.0833 75 75.2179 75 72.9166V68.75C75 66.4487 73.1346 64.5833 70.8333 64.5833H14.5833Z" fill="#333333"/>
<path d="M83.3333 66.6666C83.3333 65.516 82.4006 64.5833 81.25 64.5833C80.0994 64.5833 79.1667 65.516 79.1667 66.6666V75C79.1667 76.1506 80.0994 77.0833 81.25 77.0833C82.4006 77.0833 83.3333 76.1506 83.3333 75V66.6666Z" fill="#333333"/>
<path d="M91.6667 66.6666C91.6667 65.516 90.734 64.5833 89.5833 64.5833C88.4327 64.5833 87.5 65.516 87.5 66.6666V75C87.5 76.1506 88.4327 77.0833 89.5833 77.0833C90.734 77.0833 91.6667 76.1506 91.6667 75V66.6666Z" fill="#333333"/>
</svg>
