<svg width="120" height="120" viewBox="0 0 120 120" fill="none" xmlns="http://www.w3.org/2000/svg">
<path fill-rule="evenodd" clip-rule="evenodd" d="M43.8647 38.6982C40.2752 37.2968 36.3235 37.1193 32.6227 38.1933C28.922 39.267 25.679 41.5325 23.3975 44.6378C21.1158 47.7433 19.9229 51.5147 20.0039 55.3675C20.0848 59.22 21.4351 62.9383 23.8452 65.945C26.2552 68.9518 29.5905 71.0788 33.333 71.9965C37.0758 72.914 41.0165 72.5705 44.544 71.0195C48.0715 69.4685 50.9885 66.7963 52.8423 63.418C54.6957 60.0398 55.3827 56.144 54.796 52.3355C54.5857 50.971 55.5217 49.6943 56.8862 49.484C58.251 49.274 59.5275 50.2098 59.7377 51.5742C60.492 56.471 59.609 61.4798 57.2257 65.8232C54.8423 70.1668 51.092 73.6022 46.5567 75.5965C42.0212 77.5908 36.9545 78.0322 32.1425 76.8525C27.3305 75.673 23.0426 72.938 19.9439 69.0723C16.8452 65.2063 15.1091 60.4257 15.005 55.4725C14.9009 50.5192 16.4346 45.67 19.3682 41.6773C22.3017 37.6848 26.471 34.772 31.2292 33.3913C35.9872 32.0105 41.0682 32.2387 45.6833 34.0407C46.9695 34.5427 47.605 35.9925 47.1027 37.2788C46.6007 38.5648 45.151 39.2005 43.8647 38.6982Z" fill="#333333"/>
<path fill-rule="evenodd" clip-rule="evenodd" d="M35 97.4998V77.4998C35 76.119 36.1193 74.9998 37.5 74.9998C38.8807 74.9998 40 76.119 40 77.4998V97.4998C40 98.8805 38.8807 99.9998 37.5 99.9998C36.1193 99.9998 35 98.8805 35 97.4998Z" fill="#333333"/>
<path fill-rule="evenodd" clip-rule="evenodd" d="M27.5 84.9998C27.5 83.619 28.6193 82.4998 30 82.4998H45C46.3808 82.4998 47.5 83.619 47.5 84.9998C47.5 86.3805 46.3808 87.4998 45 87.4998H30C28.6193 87.4998 27.5 86.3805 27.5 84.9998Z" fill="#333333"/>
<path fill-rule="evenodd" clip-rule="evenodd" d="M72.254 38.1577C68.5455 37.111 64.595 37.3175 61.016 38.7452C57.4368 40.173 54.429 42.7422 52.459 46.0542C50.4893 49.3662 49.6677 53.2357 50.122 57.0622C50.2847 58.4335 49.3052 59.6767 47.934 59.8395C46.563 60.0022 45.3195 59.0227 45.1568 57.6517C44.573 52.7317 45.6292 47.7567 48.1617 43.4985C50.6942 39.2402 54.5615 35.937 59.1633 34.1012C63.7653 32.2655 68.8442 32 73.6122 33.346C78.3805 34.6917 82.571 37.5737 85.5338 41.5447C88.4965 45.5157 90.0658 50.3537 89.998 55.3077C89.93 60.2615 88.229 65.0547 85.1587 68.943C82.0885 72.8315 77.8205 75.5977 73.0175 76.8127C68.2143 78.0277 63.1445 77.6232 58.5945 75.6622C57.3265 75.1157 56.7418 73.645 57.2883 72.377C57.8348 71.109 59.3055 70.5243 60.5735 71.0707C64.1123 72.5957 68.0555 72.9102 71.7912 71.9655C75.5272 71.0205 78.8465 68.869 81.2345 65.8445C83.6225 62.8202 84.9457 59.0922 84.9982 55.2392C85.051 51.3862 83.8305 47.6232 81.5262 44.5347C79.222 41.4462 75.9625 39.2047 72.254 38.1577Z" fill="#333333"/>
<path fill-rule="evenodd" clip-rule="evenodd" d="M81.9823 43.0175C81.006 42.0413 81.006 40.4583 81.9823 39.482L100.732 20.732C101.709 19.7557 103.292 19.7557 104.268 20.732C105.244 21.7083 105.244 23.2912 104.268 24.2675L85.5178 43.0175C84.5415 43.9938 82.9585 43.9938 81.9823 43.0175Z" fill="#333333"/>
<path fill-rule="evenodd" clip-rule="evenodd" d="M102.311 37.4995C100.93 37.4823 99.8253 36.3488 99.8428 34.9683L99.968 25.0318L90.0315 25.157C88.651 25.1743 87.5175 24.0693 87.5003 22.6887C87.4828 21.3081 88.588 20.1748 89.9685 20.1574L105.032 19.9677L104.842 35.0313C104.825 36.4118 103.692 37.517 102.311 37.4995Z" fill="#333333"/>
</svg>
