<svg width="100" height="100" viewBox="0 0 100 100" fill="none" xmlns="http://www.w3.org/2000/svg">
<path fill-rule="evenodd" clip-rule="evenodd" d="M21.0179 61.1338C21.0179 77.8698 34.5015 91.4367 51.1342 91.4367C67.7669 91.4367 81.2502 77.8698 81.2502 61.1338C81.2502 38.4065 51.1342 8.10345 51.1342 8.10345C51.1342 8.10345 21.0179 38.4065 21.0179 61.1338ZM63.2819 69.705C64.5177 68.0881 66.8227 67.7852 68.43 69.0281C70.0375 70.2713 70.3388 72.5898 69.1027 74.2069L68.5971 74.8686C59.7796 86.4048 42.489 86.4048 33.6715 74.8686L33.1657 74.2069C31.93 72.5898 32.2311 70.2713 33.8386 69.0281C35.4461 67.7852 37.7509 68.0881 38.9867 69.705L39.4925 70.3665C45.3707 78.0573 56.8977 78.0573 62.7761 70.3665L63.2819 69.705Z" fill="#333333"/>
</svg>
