
<svg width="100" height="100" viewBox="0 0 100 100" fill="none" xmlns="http://www.w3.org/2000/svg">
<path d="M12.5 50C12.5 29.2894 29.2894 12.5 50 12.5V16.6667C31.5904 16.6667 16.6667 31.5904 16.6667 50C16.6667 68.4096 31.5904 83.3333 50 83.3333C68.4096 83.3333 83.3333 68.4096 83.3333 50C83.3333 46.6698 82.845 43.4535 81.936 40.4192L85.9279 39.2217C86.9506 42.6352 87.5 46.2535 87.5 50C87.5 70.7106 70.7106 87.5 50 87.5C29.2894 87.5 12.5 70.7106 12.5 50Z" fill="#333333"/>
<path d="M38.6044 29.0658C37.6079 29.6413 37.2664 30.9154 37.8416 31.9119C38.4171 32.9083 39.6912 33.2496 40.6877 32.6744L42.6385 31.5479L41.6973 39.3613C41.6029 40.1446 41.9591 40.9142 42.6177 41.349C43.2762 41.7838 44.1239 41.8092 44.8073 41.4146L51.0614 37.8038C52.0579 37.2283 52.3994 35.9544 51.8241 34.9579C51.2487 33.9615 49.9746 33.62 48.9781 34.1952L46.3323 35.7229L47.2737 27.9096C47.3681 27.1263 47.0116 26.3567 46.3531 25.9219C45.6948 25.4871 44.8471 25.4617 44.1637 25.8563L38.6044 29.0658Z" fill="#333333"/>
<path d="M53.7858 19.3627C53.4881 18.2513 54.1477 17.1089 55.2592 16.8111L63.3085 14.6543C64.0706 14.4501 64.8829 14.694 65.4064 15.2844C65.93 15.8748 66.075 16.7104 65.781 17.4427L61.5129 28.0765L66.5437 26.7283C67.655 26.4306 68.7975 27.0902 69.0952 28.2015C69.3931 29.3129 68.7335 30.4552 67.6221 30.7531L58.5664 33.1796C57.8044 33.3838 56.9921 33.1398 56.4685 32.5494C55.945 31.959 55.8 31.1233 56.0939 30.3911L60.3621 19.7574L56.3375 20.8358C55.226 21.1336 54.0837 20.4741 53.7858 19.3627Z" fill="#333333"/>
<path d="M76.1575 12.5C75.0069 12.5 74.0742 13.4328 74.0742 14.5833C74.0742 15.7339 75.0069 16.6667 76.1575 16.6667H81.6579L73.2333 30.1458C72.8319 30.7881 72.8106 31.5975 73.1779 32.26C73.545 32.9223 74.2427 33.3333 75 33.3333H85.4167C86.5673 33.3333 87.5 32.4006 87.5 31.25C87.5 30.0994 86.5673 29.1667 85.4167 29.1667H78.7587L87.1833 15.6875C87.5848 15.0453 87.606 14.2358 87.2387 13.5734C86.8717 12.911 86.174 12.5 85.4167 12.5H76.1575Z" fill="#333333"/>
<path d="M26.8509 56.4702C27.009 58.0188 28.3977 59.1727 30.0081 59.6848C31.6909 60.2198 33.8734 60.1742 36.1896 59.1719C38.5977 58.13 40.0069 56.2615 40.6313 54.3898C41.2346 52.5815 41.1513 50.5992 40.3136 49.3379C40.1167 49.0417 39.7823 48.8663 39.4267 48.8729C39.0711 48.8794 38.7434 49.0669 38.5575 49.3702C35.8629 53.7692 32.0077 55.7054 27.9846 55.3273C27.6744 55.2981 27.3673 55.4094 27.1477 55.6308C26.9281 55.8521 26.8192 56.16 26.8509 56.4702Z" fill="#333333"/>
<path d="M67.2504 45.6452C67.8879 47.0654 67.2623 48.759 66.1235 50.0077C64.9337 51.3125 63.0208 52.3642 60.5137 52.6544C57.9073 52.956 55.7525 52.0423 54.276 50.7337C52.8494 49.4694 51.9304 47.7108 52.0254 46.1998C52.0477 45.8448 52.2496 45.5256 52.5608 45.3535C52.8721 45.1815 53.2496 45.18 53.5623 45.3498C58.0954 47.8119 62.4021 47.561 65.6971 45.2223C65.9512 45.0419 66.2729 44.9846 66.5737 45.0665C66.8746 45.1485 67.1227 45.3608 67.2504 45.6452Z" fill="#333333"/>
<path d="M67.5996 66.3646C62.9102 59.9392 55.9606 56.5423 49.4598 58.2842C42.959 60.026 38.639 66.4425 37.7906 74.3519C37.5519 76.5787 39.714 78.15 41.8773 77.5704L65.6698 71.1952C67.8331 70.6156 68.9198 68.1735 67.5996 66.3646Z" fill="#333333"/>
</svg>
